<svg width="27" height="24" viewBox="0 0 27 24" fill="none" xmlns="http://www.w3.org/2000/svg">
<path d="M3.38041 0H23.6661C25.4865 0 27 1.53482 27 3.42857V20.5714C27 22.4652 25.4865 24 23.6666 24H3.38094C1.5135 24 -2.90022e-07 22.4652 -2.90022e-07 20.5714V3.42857C-0.000528562 1.53482 1.46807 0 3.38041 0ZM21.1304 3.42857C19.7299 3.42857 18.5947 4.57982 18.5947 6C18.5947 7.42018 19.6829 8.57143 21.1304 8.57143C22.5778 8.57143 23.6661 7.42018 23.6661 6C23.6661 4.57982 22.4838 3.42857 21.1304 3.42857ZM3.43324 20.1214C3.58116 20.4 3.86642 20.5714 4.17811 20.5714H22.6671C22.8231 20.5714 22.9761 20.5277 23.109 20.4449C23.242 20.3622 23.3498 20.2437 23.4204 20.1027C23.4911 19.9616 23.522 19.8035 23.5096 19.6458C23.4971 19.4881 23.4419 19.3369 23.35 19.2091L19.652 14.0663C19.4927 13.8429 19.2392 13.7143 18.9697 13.7143C18.7003 13.7143 18.4459 13.8451 18.2867 14.0665L16.5719 16.4509L11.6431 8.99914C11.4841 8.71607 11.22 8.57143 10.94 8.57143C10.66 8.57143 10.3932 8.71457 10.2369 8.95313L3.47498 19.2388C3.30117 19.5 3.28532 19.8375 3.43324 20.1214Z" fill="black"/>
</svg>
