<svg width="256" height="368" viewBox="0 0 256 368" fill="none" xmlns="http://www.w3.org/2000/svg">
<path d="M70 272.033C80.6142 285.559 90.2745 299.808 98.911 314.675C106.285 328.657 109.359 338.138 114.748 354.985C118.053 364.293 121.04 367.071 127.462 367.071C134.46 367.071 137.635 362.345 140.088 355.036C145.182 339.126 149.179 326.984 155.485 315.511C167.859 293.361 183.235 273.678 198.343 254.761C202.433 249.407 228.877 218.216 240.782 193.605C240.782 193.605 255.414 166.57 255.414 128.813C255.414 93.495 240.984 69 240.984 69L199.439 80.126L174.209 146.577L167.967 155.74L166.719 157.4L165.059 159.478L162.145 162.797L157.981 166.96L135.514 185.264L79.344 217.696L70 272.033V272.033Z" fill="white"/>
<path d="M12.6118 188.892C26.3208 220.205 52.7568 247.731 70.6428 271.887L165.644 159.353C165.644 159.353 152.26 176.857 127.982 176.857C100.939 176.857 79.0918 155.262 79.0918 128.032C79.0918 109.359 90.3258 96.531 90.3258 96.531L25.8368 113.811L12.6118 188.891V188.892Z" fill="#FBBC04"/>
<path d="M166.705 5.78689C198.257 15.9599 225.263 37.3169 241.598 68.8099L165.673 159.288C165.673 159.288 176.907 146.228 176.907 127.671C176.907 99.8069 153.444 78.9909 128.097 78.9909C104.128 78.9909 90.3618 96.4659 90.3618 96.4659V39.4659L166.705 5.78589V5.78689Z" fill="#4285F4"/>
<path d="M30.0151 45.765C48.8601 23.218 82.0201 0 127.736 0C149.916 0 166.626 5.823 166.626 5.823L90.2901 96.516H36.2051L30.0151 45.766V45.765Z" fill="#1A73E8"/>
<path d="M12.612 188.892C12.612 188.892 0 164.194 0 128.414C0 94.5969 13.146 65.0369 30.015 45.7649L90.333 96.5239L12.612 188.892V188.892Z" fill="#EA4335"/>
</svg>
