<svg width="309" height="299" viewBox="0 0 309 299" fill="none" xmlns="http://www.w3.org/2000/svg">
<path d="M191.694 0.555664H21.4721C15.8289 0.555664 10.4168 2.79742 6.42645 6.78778C2.43609 10.7781 0.194336 16.1902 0.194336 21.8334V277.167C0.194336 282.81 2.43609 288.222 6.42645 292.212C10.4168 296.203 15.8289 298.445 21.4721 298.445H191.694C197.338 298.445 202.75 296.203 206.74 292.212C210.73 288.222 212.972 282.81 212.972 277.167V213.333H113.286C110.464 213.333 107.758 212.213 105.763 210.217C103.768 208.222 102.647 205.516 102.647 202.695C102.647 199.873 103.768 197.167 105.763 195.172C107.758 193.177 110.464 192.056 113.286 192.056H212.972V21.8334C212.972 16.1902 210.73 10.7781 206.74 6.78778C202.75 2.79742 197.338 0.555664 191.694 0.555664V0.555664Z" fill="white"/>
<path d="M246.591 141.84C244.556 140.097 241.938 139.186 239.26 139.29C236.583 139.393 234.043 140.503 232.148 142.398C230.253 144.293 229.143 146.833 229.04 149.51C228.937 152.188 229.847 154.806 231.59 156.841L267.55 192.056H212.972V213.334H267.55L231.59 250.144C230.477 251.098 229.572 252.271 228.933 253.591C228.295 254.911 227.936 256.349 227.879 257.814C227.823 259.279 228.07 260.74 228.605 262.106C229.139 263.471 229.951 264.711 230.988 265.748C232.024 266.784 233.264 267.596 234.63 268.131C235.995 268.665 237.456 268.912 238.921 268.856C240.386 268.799 241.824 268.44 243.144 267.802C244.464 267.163 245.637 266.259 246.591 265.145L308.722 203.439L246.591 141.84Z" fill="white"/>
</svg>
