<svg width="18" height="21" viewBox="0 0 18 21" fill="none" xmlns="http://www.w3.org/2000/svg">
<path d="M5.57743 2.47275C4.3529 2.81023 3.13669 3.17719 1.92986 3.57332C1.81966 3.60902 1.7217 3.67495 1.64715 3.7636C1.57259 3.85225 1.52443 3.96006 1.50815 4.07475C0.795864 9.41946 2.44158 13.319 4.40486 15.8879C5.23609 16.9864 6.22724 17.9541 7.34529 18.7589C7.79014 19.0726 8.18357 19.2989 8.49343 19.4442C8.64771 19.5175 8.77371 19.5663 8.87014 19.5959C8.91232 19.6107 8.9558 19.6214 9 19.628C9.04368 19.6209 9.08669 19.6102 9.12857 19.5959C9.22629 19.5663 9.35229 19.5175 9.50657 19.4442C9.81514 19.2989 10.2099 19.0713 10.6547 18.7589C11.7727 17.9541 12.7639 16.9864 13.5951 15.8879C15.5584 13.3203 17.2041 9.41946 16.4919 4.07475C16.4757 3.96001 16.4276 3.85213 16.353 3.76345C16.2785 3.67477 16.1804 3.60888 16.0701 3.57332C15.2331 3.29946 13.8201 2.85332 12.4226 2.47404C10.9954 2.08704 9.68271 1.80032 9 1.80032C8.31857 1.80032 7.00457 2.08704 5.57743 2.47404V2.47275ZM5.23543 1.14847C6.63043 0.769181 8.11286 0.428467 9 0.428467C9.88714 0.428467 11.3696 0.769181 12.7646 1.14847C14.1917 1.53418 15.6304 1.99061 16.4764 2.26704C16.8301 2.38385 17.1437 2.59806 17.3812 2.88508C17.6186 3.1721 17.7703 3.52027 17.8187 3.88961C18.585 9.64575 16.8069 13.9117 14.6494 16.7339C13.7346 17.9411 12.6437 19.0043 11.4133 19.8877C10.9878 20.1935 10.537 20.4623 10.0659 20.6913C9.70586 20.861 9.31886 20.9999 9 20.9999C8.68114 20.9999 8.29543 20.861 7.93414 20.6913C7.46295 20.4623 7.01217 20.1935 6.58672 19.8877C5.35632 19.0042 4.26547 17.9411 3.35058 16.7339C1.19315 13.9117 -0.584993 9.64575 0.181293 3.88961C0.229748 3.52027 0.381405 3.1721 0.618842 2.88508C0.85628 2.59806 1.16987 2.38385 1.52358 2.26704C2.75168 1.86436 3.98933 1.4914 5.23543 1.14847V1.14847Z" fill="black"/>
<path d="M10.9286 8.78571C10.9288 9.1847 10.8052 9.57394 10.575 9.89977C10.3447 10.2256 10.019 10.472 9.64285 10.605L10.1379 13.1636C10.1559 13.2566 10.1531 13.3525 10.1297 13.4444C10.1063 13.5362 10.0629 13.6218 10.0025 13.6949C9.94221 13.768 9.86646 13.8268 9.78072 13.8672C9.69497 13.9076 9.60135 13.9286 9.50657 13.9286H8.49343C8.39875 13.9284 8.30528 13.9073 8.21969 13.8668C8.13411 13.8264 8.05852 13.7675 7.99833 13.6944C7.93815 13.6213 7.89484 13.5358 7.87152 13.4441C7.8482 13.3523 7.84544 13.2565 7.86343 13.1636L8.35714 10.605C8.02383 10.4872 7.72933 10.28 7.50581 10.0061C7.28229 9.73217 7.13836 9.4021 7.08975 9.05193C7.04113 8.70177 7.0897 8.34497 7.23015 8.02054C7.3706 7.69611 7.59752 7.41653 7.88612 7.21235C8.17472 7.00816 8.51389 6.88723 8.86657 6.86278C9.21925 6.83832 9.57187 6.91127 9.88589 7.07366C10.1999 7.23606 10.4633 7.48164 10.6471 7.78358C10.831 8.08551 10.9284 8.43219 10.9286 8.78571V8.78571Z" fill="black"/>
</svg>
