<svg xmlns="http://www.w3.org/2000/svg" width="13" height="15" fill="none" viewBox="0 0 13 15">
  <path fill="#000" d="M2 0a.5.5 0 0 1 .5.5V1h2V.5a.5.5 0 0 1 1 0V1h2V.5a.5.5 0 0 1 1 0V1A1.5 1.5 0 0 1 10 2.5v2.536c-.359.062-.7.2-1 .406V2.5a.5.5 0 0 0-.5-.5h-7a.5.5 0 0 0-.5.5v10a.5.5 0 0 0 .5.5h1.547v.002a1.59 1.59 0 0 0 .068.998H1.5A1.5 1.5 0 0 1 0 12.5v-10A1.5 1.5 0 0 1 1.5 1V.5A.5.5 0 0 1 2 0Zm5 7c.107 0 .206.034.288.091L6.378 8H3a.5.5 0 1 1 0-1h4Zm-3.004 3.435A.5.5 0 0 0 3.5 10H3a.5.5 0 0 0 0 1h.5a.498.498 0 0 0 .157-.025c.097-.189.21-.37.339-.54ZM3 4a.5.5 0 1 0 0 1h4a.5.5 0 1 0 0-1H3Zm6.338 2.455a1.56 1.56 0 1 1 2.207 2.207L7.256 12.95a2.776 2.776 0 0 1-1.29.731l-1.211.303a.61.61 0 0 1-.74-.74l.304-1.21c.122-.489.374-.935.73-1.29l4.289-4.289Z"/>
</svg>
