<svg xmlns="http://www.w3.org/2000/svg" viewBox="0 0 512 511.66"><defs><style>.cls-1{fill:#15a95f;}.cls-2{fill:#f18536;stroke-width:5.22px;}.cls-2,.cls-3{stroke:#fff;stroke-miterlimit:10;}.cls-3{fill:none;stroke-width:7.16px;}</style></defs><title>Asset 9</title><g id="Layer_2" data-name="Layer 2"><g id="Layer_2-2" data-name="Layer 2"><rect class="cls-1" width="512" height="511.66"/><path class="cls-2" d="M387.14,124.14a8.25,8.25,0,0,1,0,12L262.27,255.83,198,317.42a8.36,8.36,0,0,0-2.6,6v99.13a8.69,8.69,0,0,1-8.87,8.51H131.14a8.7,8.7,0,0,1-8.88-8.51V89.09a8.7,8.7,0,0,1,8.88-8.51h55.39a8.69,8.69,0,0,1,8.87,8.51V200.25c0,7.58,9.57,11.38,15.16,6h0L335.41,86.6a9.14,9.14,0,0,1,12.56,0Z"/><rect class="cls-2" x="122.27" y="80.58" width="73.14" height="350.5" rx="6.07" ry="6.07"/><path class="cls-2" d="M387.14,387.52,348,425.06a9.14,9.14,0,0,1-12.56,0L216.84,311.41a8.26,8.26,0,0,1,0-12L256,261.85a9.14,9.14,0,0,1,12.56,0L387.14,375.49A8.25,8.25,0,0,1,387.14,387.52Z"/><path class="cls-3" d="M42.82,99.57V70.38c0-16,13.5-28.89,30.15-28.89h30.45"/><path class="cls-3" d="M406.44,41.49H436.9c16.65,0,30.15,12.93,30.15,28.89V99.57"/><path class="cls-3" d="M103.42,448.07H73c-16.65,0-30.15-12.94-30.15-28.9V390"/><path class="cls-3" d="M467.05,390v29.18c0,16-13.5,28.9-30.15,28.9H406.44"/></g></g></svg>